<svg width="1440" height="855" viewBox="0 0 1440 855" fill="none" xmlns="http://www.w3.org/2000/svg">
<g id="Frame 1" clip-path="url(#clip0)">
<rect width="1440" height="855" fill="url(#paint0_linear)"/>
<g id="Stars">
<path id="Ellipse 54" d="M1518.25 855.221C1518.25 820.153 1485.63 786.523 1427.57 761.727C1369.5 736.93 1290.74 723 1208.63 723C1126.51 723 1047.75 736.93 989.688 761.726C931.621 786.523 899 820.153 899 855.221L1208.63 855.221H1518.25Z" fill="url(#paint1_linear)"/>
<path id="Ellipse 55" d="M574.253 869.221C574.253 834.153 541.632 800.523 483.566 775.727C425.5 750.93 346.745 737 264.627 737C182.509 737 103.754 750.93 45.6876 775.726C-12.3787 800.523 -45 834.153 -45 869.221L264.627 869.221H574.253Z" fill="url(#paint2_linear)"/>
<path id="Ellipse 59" d="M1174.79 905.421C1174.79 858.538 1131.2 813.575 1053.61 780.423C976.025 747.271 870.792 728.647 761.066 728.647C651.339 728.647 546.107 747.271 468.519 780.423C390.93 813.575 347.342 858.538 347.342 905.421L761.066 905.421H1174.79Z" fill="url(#paint3_linear)"/>
<path id="Ellipse 56" d="M550.253 881.445C550.253 846.367 517.632 812.726 459.566 787.922C401.5 763.119 322.745 840.121 240.627 840.121C158.509 840.121 58.1087 815.317 0.0424881 840.121C-58.0238 864.924 -69 846.367 -69 881.445L240.627 881.445H550.253Z" fill="black" fill-opacity="0.31"/>
<path id="Ellipse 57" d="M973.171 851.878C973.171 816.758 978.858 797.148 1023 772.315C1048.01 758.244 1094 730.049 1128.42 758.245C1208.55 851.878 1344.14 747.482 1388.28 772.315C1432.42 797.148 1443.93 816.758 1443.93 851.878L1208.55 851.878H973.171Z" fill="black" fill-opacity="0.1"/>
<ellipse id="Ellipse 63" cx="652.376" cy="211.073" rx="4.47791" ry="3.3893" fill="#ECECEC"/>
<ellipse id="Ellipse 81" cx="615.257" cy="197.249" rx="4.47791" ry="3.3893" fill="#ECECEC"/>
<ellipse id="Ellipse 122" cx="1315.34" cy="85.7587" rx="4.47791" ry="3.3893" fill="#ECECEC"/>
<ellipse id="Ellipse 123" cx="1242.99" cy="120.365" rx="4.47791" ry="3.3893" fill="#ECECEC"/>
<ellipse id="Ellipse 126" cx="1226.85" cy="82.9044" rx="4.47791" ry="3.3893" fill="#ECECEC"/>
<ellipse id="Ellipse 124" rx="3.42033" ry="4.45425" transform="matrix(-0.205644 0.978627 -0.992832 -0.119521 1266.11 191.618)" fill="#ECECEC"/>
<ellipse id="Ellipse 125" rx="3.42033" ry="4.45425" transform="matrix(-0.205644 0.978627 -0.992832 -0.119521 1320.47 168.216)" fill="#ECECEC"/>
<ellipse id="Ellipse 69" cx="931.539" cy="110.822" rx="7.4239" ry="5.6191" fill="#ECECEC"/>
<ellipse id="Ellipse 71" cx="1043.6" cy="247.285" rx="7.4239" ry="5.6191" fill="#ECECEC"/>
<ellipse id="Ellipse 73" cx="722.02" cy="110.822" rx="7.4239" ry="5.6191" fill="#ECECEC"/>
<ellipse id="Ellipse 127" cx="465.719" cy="82.3693" rx="7.4239" ry="5.6191" fill="#ECECEC"/>
<ellipse id="Ellipse 128" cx="267.277" cy="76.7502" rx="7.4239" ry="5.6191" fill="#ECECEC"/>
<ellipse id="Ellipse 66" rx="3.94763" ry="2.98793" transform="matrix(-1 0 0 1 606.832 280.688)" fill="#ECECEC"/>
<ellipse id="Ellipse 67" cx="909.032" cy="320.958" rx="5.0671" ry="3.83526" fill="#ECECEC"/>
<ellipse id="Ellipse 75" cx="929.182" cy="189.132" rx="5.0671" ry="3.83526" fill="#ECECEC"/>
<ellipse id="Ellipse 76" cx="508.022" cy="196.803" rx="5.0671" ry="3.83526" fill="#ECECEC"/>
<ellipse id="Ellipse 129" cx="458.295" cy="248.088" rx="3.88871" ry="2.94334" fill="#ECECEC"/>
<ellipse id="Ellipse 132" cx="652.377" cy="115.995" rx="3.88871" ry="2.94334" fill="#ECECEC"/>
<ellipse id="Ellipse 131" cx="583.205" cy="238.634" rx="3.88871" ry="2.94334" fill="#ECECEC"/>
<ellipse id="Ellipse 147" cx="1144.42" cy="33.1059" rx="4.47791" ry="3.3893" fill="#ECECEC"/>
<ellipse id="Ellipse 148" cx="1107.3" cy="19.2811" rx="4.47791" ry="3.3893" fill="#ECECEC"/>
<ellipse id="Ellipse 149" cx="1000.07" cy="18.8353" rx="5.0671" ry="3.83526" fill="#ECECEC"/>
<ellipse id="Ellipse 150" cx="1075.25" cy="60.6662" rx="3.88871" ry="2.94334" fill="#ECECEC"/>
<ellipse id="Ellipse 155" cx="1398.49" cy="176.241" rx="4.47791" ry="3.3893" transform="rotate(90.8901 1398.49 176.241)" fill="#ECECEC"/>
<ellipse id="Ellipse 156" cx="1412.89" cy="139.341" rx="4.47791" ry="3.3893" transform="rotate(90.8901 1412.89 139.341)" fill="#ECECEC"/>
<ellipse id="Ellipse 157" cx="1415" cy="32.1261" rx="5.0671" ry="3.83526" transform="rotate(90.8901 1415 32.1261)" fill="#ECECEC"/>
<ellipse id="Ellipse 158" cx="1372" cy="106.65" rx="3.88871" ry="2.94334" transform="rotate(90.8901 1372 106.65)" fill="#ECECEC"/>
<ellipse id="Ellipse 154" cx="1289.25" cy="22.6662" rx="3.88871" ry="2.94334" fill="#ECECEC"/>
<ellipse id="Ellipse 145" cx="533.067" cy="21.8353" rx="5.0671" ry="3.83526" fill="#ECECEC"/>
<ellipse id="Ellipse 146" cx="608.25" cy="63.6662" rx="3.88871" ry="2.94334" fill="#ECECEC"/>
<ellipse id="Ellipse 130" cx="314.529" cy="182.978" rx="3.88871" ry="2.94334" fill="#ECECEC"/>
<ellipse id="Ellipse 77" cx="478.563" cy="137.133" rx="5.0671" ry="3.83526" fill="#ECECEC"/>
<ellipse id="Ellipse 78" cx="497.889" cy="338.529" rx="5.0671" ry="3.83526" fill="#ECECEC"/>
<ellipse id="Ellipse 79" cx="508.022" cy="273.865" rx="5.0671" ry="3.83526" fill="#ECECEC"/>
<ellipse id="Ellipse 80" cx="385.116" cy="235.69" rx="5.0671" ry="3.83526" fill="#ECECEC"/>
<ellipse id="Ellipse 98" rx="4.43863" ry="3.44057" transform="matrix(-0.988006 0.154414 -0.263191 -0.964744 246.406 285.458)" fill="#ECECEC"/>
<ellipse id="Ellipse 99" rx="4.43863" ry="3.44057" transform="matrix(-0.988006 0.154414 -0.263191 -0.964744 286.453 293.316)" fill="#ECECEC"/>
<ellipse id="Ellipse 116" rx="4.43863" ry="3.44057" transform="matrix(-0.988006 0.154414 -0.263191 -0.964744 67.2911 297.313)" fill="#ECECEC"/>
<ellipse id="Ellipse 117" rx="4.43863" ry="3.44057" transform="matrix(-0.988006 0.154414 -0.263191 -0.964744 107.336 305.171)" fill="#ECECEC"/>
<ellipse id="Ellipse 118" rx="4.43863" ry="3.44057" transform="matrix(-0.988006 0.154414 -0.263191 -0.964744 998.225 146.846)" fill="#ECECEC"/>
<ellipse id="Ellipse 119" rx="4.43863" ry="3.44057" transform="matrix(-0.988006 0.154414 -0.263191 -0.964744 1038.27 154.704)" fill="#ECECEC"/>
<ellipse id="Ellipse 100" rx="3.913" ry="3.03314" transform="matrix(0.988006 -0.154414 -0.263191 -0.964744 272.412 210.311)" fill="#ECECEC"/>
<ellipse id="Ellipse 101" rx="5.02266" ry="3.89328" transform="matrix(-0.988006 0.154414 -0.263191 -0.964744 391.591 277.339)" fill="#ECECEC"/>
<ellipse id="Ellipse 120" cx="1124.78" cy="81.1207" rx="5.0671" ry="3.83526" fill="#ECECEC"/>
<ellipse id="Ellipse 121" rx="5.02266" ry="3.89328" transform="matrix(-0.988006 0.154414 -0.263191 -0.964744 1008.35 84.5952)" fill="#ECECEC"/>
<ellipse id="Ellipse 102" rx="5.02266" ry="3.89328" transform="matrix(-0.988006 0.154414 -0.263191 -0.964744 371.001 201.869)" fill="#ECECEC"/>
<ellipse id="Ellipse 141" cx="959.548" cy="67.7502" rx="3.88871" ry="2.94334" fill="#ECECEC"/>
<ellipse id="Ellipse 142" cx="886.369" cy="55.3526" rx="5.0671" ry="3.83526" fill="#ECECEC"/>
<ellipse id="Ellipse 143" rx="3.913" ry="3.03314" transform="matrix(0.988006 -0.154414 -0.263191 -0.964744 773.664 29.973)" fill="#ECECEC"/>
<ellipse id="Ellipse 144" rx="5.02266" ry="3.89328" transform="matrix(-0.988006 0.154414 -0.263191 -0.964744 872.254 21.5315)" fill="#ECECEC"/>
<ellipse id="Ellipse 104" rx="4.43863" ry="3.44057" transform="matrix(-0.988006 0.154414 -0.263191 -0.964744 557.15 152.473)" fill="#ECECEC"/>
<ellipse id="Ellipse 106" rx="3.913" ry="3.03314" transform="matrix(0.988006 -0.154414 -0.263191 -0.964744 583.156 77.3255)" fill="#ECECEC"/>
<ellipse id="Ellipse 107" rx="5.02266" ry="3.89328" transform="matrix(-0.988006 0.154414 -0.263191 -0.964744 702.333 144.354)" fill="#ECECEC"/>
<ellipse id="Ellipse 108" rx="5.02266" ry="3.89328" transform="matrix(-0.988006 0.154414 -0.263191 -0.964744 681.745 68.8841)" fill="#ECECEC"/>
<ellipse id="Ellipse 109" rx="5.02266" ry="3.89328" transform="matrix(-0.988006 0.154414 -0.263191 -0.964744 812.312 87.4575)" fill="#ECECEC"/>
<ellipse id="Ellipse 110" rx="4.43863" ry="3.44057" transform="matrix(-0.988006 0.154414 -0.263191 -0.964744 1103.81 342.808)" fill="#ECECEC"/>
<ellipse id="Ellipse 111" rx="4.43863" ry="3.44057" transform="matrix(-0.988006 0.154414 -0.263191 -0.964744 1143.85 350.666)" fill="#ECECEC"/>
<ellipse id="Ellipse 112" rx="3.913" ry="3.03314" transform="matrix(0.988006 -0.154414 -0.263191 -0.964744 1129.81 267.661)" fill="#ECECEC"/>
<ellipse id="Ellipse 113" rx="5.02266" ry="3.89328" transform="matrix(-0.988006 0.154414 -0.263191 -0.964744 1248.99 334.69)" fill="#ECECEC"/>
<ellipse id="Ellipse 114" rx="5.02266" ry="3.89328" transform="matrix(-0.988006 0.154414 -0.263191 -0.964744 1228.4 259.22)" fill="#ECECEC"/>
<ellipse id="Ellipse 115" rx="5.02266" ry="3.89328" transform="matrix(-0.988006 0.154414 -0.263191 -0.964744 1358.97 277.793)" fill="#ECECEC"/>
<ellipse id="Ellipse 82" rx="3.62424" ry="4.28997" transform="matrix(0.54195 0.840411 -0.938035 0.346542 929.637 261.248)" fill="#ECECEC"/>
<ellipse id="Ellipse 83" rx="3.19505" ry="3.78195" transform="matrix(-0.54195 -0.840411 -0.938035 0.346542 826.873 292.116)" fill="#ECECEC"/>
<ellipse id="Ellipse 84" rx="4.10111" ry="4.85444" transform="matrix(0.54195 0.840411 -0.938035 0.346542 883.13 188.113)" fill="#ECECEC"/>
<ellipse id="Ellipse 85" rx="4.10111" ry="4.85444" transform="matrix(0.54195 0.840411 -0.938035 0.346542 710.413 243.385)" fill="#ECECEC"/>
<ellipse id="Ellipse 86" rx="4.10111" ry="4.85444" transform="matrix(0.54195 0.840411 -0.938035 0.346542 791.634 221.915)" fill="#ECECEC"/>
<ellipse id="Ellipse 87" rx="4.10111" ry="4.85444" transform="matrix(0.54195 0.840411 -0.938035 0.346542 783.048 121.57)" fill="#ECECEC"/>
<ellipse id="Ellipse 88" rx="4.39313" ry="3.49848" transform="matrix(-0.973515 0.228622 -0.379294 -0.925276 224.558 123.148)" fill="#ECECEC"/>
<ellipse id="Ellipse 89" rx="4.39313" ry="3.49848" transform="matrix(-0.973515 0.228622 -0.379294 -0.925276 265.422 128.026)" fill="#ECECEC"/>
<ellipse id="Ellipse 134" rx="4.15975" ry="3.77299" transform="matrix(-0.887115 -0.461548 0.6723 -0.740279 160.88 144.968)" fill="#ECECEC"/>
<ellipse id="Ellipse 135" rx="4.15975" ry="3.77299" transform="matrix(-0.887115 -0.461548 0.6723 -0.740279 181.124 172.276)" fill="#ECECEC"/>
<ellipse id="Ellipse 92" rx="4.97117" ry="3.95881" transform="matrix(-0.973515 0.228622 -0.379294 -0.925276 368.014 104.4)" fill="#ECECEC"/>
<ellipse id="Ellipse 93" rx="4.97117" ry="3.95881" transform="matrix(-0.973515 0.228622 -0.379294 -0.925276 419.512 154.782)" fill="#ECECEC"/>
<ellipse id="Ellipse 136" cx="80.7823" cy="47.9956" rx="3.88871" ry="2.94334" fill="#ECECEC"/>
<ellipse id="Ellipse 137" cx="151.369" cy="100.708" rx="5.0671" ry="3.83526" fill="#ECECEC"/>
<ellipse id="Ellipse 138" rx="3.913" ry="3.03314" transform="matrix(0.988006 -0.154414 -0.263191 -0.964744 38.6645 75.3285)" fill="#ECECEC"/>
<ellipse id="Ellipse 139" rx="5.02266" ry="3.89328" transform="matrix(-0.988006 0.154414 -0.263191 -0.964744 137.254 66.887)" fill="#ECECEC"/>
<ellipse id="Ellipse 140" rx="4.97117" ry="3.95881" transform="matrix(-0.973515 0.228622 -0.379294 -0.925276 185.765 19.7995)" fill="#ECECEC"/>
<ellipse id="Ellipse 94" rx="4.97117" ry="3.95881" transform="matrix(-0.973515 0.228622 -0.379294 -0.925276 337.844 30.7995)" fill="#ECECEC"/>
<ellipse id="Ellipse 95" rx="4.45628" ry="4.5306" transform="matrix(-0.779162 -0.626823 0.814567 -0.580069 50.1626 221.421)" fill="#ECECEC"/>
<ellipse id="Ellipse 96" rx="4.45628" ry="4.5306" transform="matrix(-0.779162 -0.626823 0.814567 -0.580069 87.3101 144.028)" fill="#ECECEC"/>
<ellipse id="Ellipse 97" rx="4.45628" ry="4.5306" transform="matrix(-0.779162 -0.626823 0.814567 -0.580069 134.796 237.94)" fill="#ECECEC"/>
</g>
<path id="Ellipse 74" d="M1130.42 199.322C1159.72 252.534 1242.21 226.372 1198.51 237.226C1154.8 248.079 1106.66 234.876 1094.98 207.929C1083.3 180.981 1109.26 150.337 1152.97 139.484C1196.68 128.631 1108.62 153.703 1130.42 199.322Z" fill="url(#paint4_linear)"/>
<g id="Cloud 1">
<path id="Vector" opacity="0.1" d="M49.3912 572.524C44.6759 571.636 39.803 572.167 35.39 574.051C32.7448 575.234 29.8798 575.845 26.9822 575.845C24.0845 575.845 21.2195 575.234 18.5743 574.051C15.4467 572.681 12.0594 572.006 8.64574 572.072C5.23207 572.138 1.87329 572.943 -1.19906 574.433C-2.95173 575.363 -4.90376 575.854 -6.88781 575.864C-14.9021 575.864 -21.5687 567.79 -22.9521 557.128C-21.3516 555.959 -19.9912 554.494 -18.945 552.811C-14.2462 545.238 -7.01896 540.384 1.19808 540.384C9.41512 540.384 16.5707 545.154 21.2696 552.68C22.6748 554.937 24.6371 556.796 26.968 558.076C29.2988 559.356 31.9198 560.015 34.5791 559.99H34.7937C41.1145 559.954 46.6363 565.071 49.3912 572.524Z" fill="#FCFDD3"/>
<path id="Vector_2" opacity="0.1" d="M73.744 539.096L60.7924 547.313L68.6517 533.002C66.4268 531.218 63.668 530.231 60.8162 530.199H60.6134C59.715 530.22 58.8166 530.156 57.9301 530.008L53.5294 532.751L55.4137 529.329C52.3038 528.241 49.6162 526.2 47.7333 523.497L39.8502 528.53L44.8114 519.502C40.2199 513.992 34.0781 510.605 27.2087 510.605C19.0393 510.605 11.7048 515.459 7.05363 523.044C5.66014 525.304 3.6943 527.156 1.35506 528.413C-0.984173 529.669 -3.61378 530.285 -6.26773 530.199H-6.66131C-15.6774 530.199 -23 540.432 -23 553.05C-23 565.667 -15.6774 575.9 -6.66131 575.9C-4.67654 575.895 -2.72315 575.404 -0.972567 574.469C2.09978 572.979 5.45856 572.174 8.87224 572.108C12.2859 572.042 15.6732 572.717 18.8008 574.087C21.4618 575.275 24.3422 575.893 27.2563 575.9C30.1326 575.896 32.9762 575.291 35.6046 574.123C38.7074 572.779 42.0626 572.118 45.4433 572.184C48.8239 572.25 52.1509 573.041 55.1991 574.504C56.9361 575.415 58.867 575.893 60.8282 575.9C69.8562 575.9 77.1668 565.667 77.1668 553.05C77.2126 548.185 76.0357 543.387 73.744 539.096Z" fill="#FCFDD3"/>
</g>
<g id="Cloud 2">
<path id="Vector_3" opacity="0.1" d="M499.862 404.999C495.938 404.262 491.883 404.703 488.211 406.266C486.01 407.248 483.626 407.755 481.214 407.755C478.803 407.755 476.419 407.248 474.218 406.266C471.615 405.129 468.796 404.569 465.955 404.624C463.115 404.678 460.32 405.347 457.763 406.583C456.305 407.354 454.68 407.762 453.029 407.77C446.36 407.77 440.812 401.071 439.661 392.223C440.993 391.254 442.125 390.038 442.996 388.641C446.906 382.357 452.92 378.329 459.758 378.329C466.596 378.329 472.55 382.288 476.46 388.532C477.63 390.406 479.263 391.948 481.202 393.01C483.142 394.072 485.323 394.619 487.536 394.598H487.715C492.975 394.569 497.569 398.814 499.862 404.999Z" fill="#FCFDD3"/>
<path id="Vector_4" opacity="0.1" d="M520.128 377.261L509.35 384.079L515.89 372.204C514.039 370.723 511.743 369.904 509.37 369.878H509.201C508.454 369.895 507.706 369.842 506.968 369.72L503.306 371.996L504.874 369.156C502.287 368.253 500.05 366.56 498.483 364.317L491.923 368.493L496.052 361.001C492.231 356.429 487.12 353.619 481.403 353.619C474.605 353.619 468.502 357.647 464.631 363.941C463.472 365.816 461.836 367.353 459.889 368.396C457.943 369.438 455.754 369.95 453.546 369.878H453.218C445.716 369.878 439.622 378.369 439.622 388.839C439.622 399.309 445.716 407.8 453.218 407.8C454.87 407.796 456.496 407.388 457.952 406.612C460.509 405.377 463.304 404.708 466.145 404.654C468.985 404.599 471.804 405.159 474.407 406.296C476.621 407.281 479.018 407.794 481.443 407.8C483.837 407.797 486.203 407.295 488.39 406.325C490.972 405.21 493.764 404.662 496.577 404.716C499.391 404.771 502.159 405.428 504.696 406.642C506.141 407.397 507.748 407.795 509.38 407.8C516.893 407.8 522.976 399.309 522.976 388.839C523.015 384.803 522.035 380.821 520.128 377.261Z" fill="#FCFDD3"/>
</g>
<g id="Cloud 7">
<path id="Vector_5" opacity="0.1" d="M950.24 214.38C946.316 213.643 942.261 214.084 938.589 215.647C936.388 216.629 934.003 217.136 931.592 217.136C929.181 217.136 926.797 216.629 924.595 215.647C921.993 214.511 919.174 213.95 916.333 214.005C913.493 214.06 910.698 214.728 908.141 215.964C906.683 216.735 905.058 217.143 903.407 217.151C896.738 217.151 891.19 210.452 890.039 201.605C891.371 200.635 892.503 199.419 893.374 198.022C897.284 191.738 903.298 187.71 910.136 187.71C916.974 187.71 922.928 191.669 926.838 197.913C928.008 199.787 929.641 201.329 931.58 202.391C933.52 203.453 935.701 204.001 937.914 203.98H938.093C943.352 203.95 947.947 208.195 950.24 214.38Z" fill="#FCFDD3"/>
<path id="Vector_6" opacity="0.1" d="M970.506 186.642L959.728 193.46L966.268 181.585C964.417 180.104 962.121 179.285 959.748 179.259H959.579C958.832 179.277 958.084 179.223 957.346 179.101L953.684 181.377L955.252 178.537C952.664 177.634 950.428 175.941 948.861 173.698L942.301 177.874L946.43 170.382C942.609 165.81 937.498 163 931.781 163C924.983 163 918.88 167.028 915.009 173.322C913.85 175.197 912.214 176.734 910.267 177.777C908.321 178.819 906.132 179.331 903.924 179.259H903.596C896.094 179.259 890 187.75 890 198.22C890 208.69 896.094 217.181 903.596 217.181C905.248 217.177 906.873 216.77 908.33 215.993C910.887 214.758 913.682 214.089 916.523 214.035C919.363 213.98 922.182 214.54 924.785 215.677C926.999 216.663 929.396 217.175 931.821 217.181C934.215 217.178 936.581 216.676 938.768 215.706C941.35 214.592 944.142 214.043 946.955 214.097C949.769 214.152 952.537 214.809 955.074 216.023C956.519 216.779 958.126 217.176 959.758 217.181C967.271 217.181 973.354 208.69 973.354 198.22C973.392 194.184 972.413 190.202 970.506 186.642V186.642Z" fill="#FCFDD3"/>
</g>
<g id="Cloud 3">
<path id="Vector_7" opacity="0.1" d="M740.23 379.386C734.672 378.339 728.928 378.965 723.727 381.186C720.611 382.58 717.236 383.301 713.823 383.301C710.41 383.301 707.035 382.58 703.919 381.186C700.233 379.571 696.24 378.775 692.216 378.853C688.192 378.93 684.233 379.88 680.611 381.635C678.545 382.73 676.244 383.309 673.906 383.322C664.459 383.322 656.587 373.805 654.956 361.238C656.846 359.864 658.451 358.136 659.68 356.149C665.218 347.222 673.737 341.5 683.437 341.5C693.137 341.5 701.543 347.124 707.082 355.994C708.749 358.656 711.073 360.843 713.831 362.345C716.589 363.847 719.687 364.613 722.827 364.569H723.066C730.545 364.569 737.067 370.6 740.23 379.386Z" fill="#FCFDD3"/>
<path id="Vector_8" opacity="0.1" d="M769.022 339.982L753.755 349.668L763.033 332.799C760.41 330.697 757.158 329.534 753.797 329.495H753.544C752.485 329.519 751.426 329.444 750.381 329.27L745.208 332.546L747.429 328.511C743.759 327.23 740.586 324.824 738.362 321.637L729.098 327.513L734.96 316.871C729.534 310.376 722.308 306.384 714.197 306.384C704.567 306.384 695.922 312.106 690.439 321.046C688.797 323.712 686.48 325.896 683.723 327.377C680.965 328.858 677.865 329.584 674.736 329.481H674.23C663.589 329.481 654.971 341.542 654.971 356.416C654.971 371.289 663.589 383.35 674.23 383.35C676.569 383.342 678.871 382.763 680.936 381.663C684.557 379.908 688.517 378.958 692.54 378.881C696.564 378.803 700.557 379.599 704.244 381.213C707.375 382.614 710.766 383.342 714.197 383.35C717.587 383.349 720.94 382.635 724.037 381.256C727.697 379.672 731.654 378.892 735.641 378.969C739.629 379.047 743.553 379.98 747.148 381.706C749.195 382.78 751.471 383.344 753.783 383.35C764.411 383.35 773.042 371.289 773.042 356.416C773.098 350.688 771.716 345.037 769.022 339.982Z" fill="#FCFDD3"/>
</g>
<g id="Cloud 4">
<path id="Vector_9" opacity="0.1" d="M1029.04 427.462C1021.94 426.279 1014.59 426.986 1007.94 429.494C1003.96 431.07 999.64 431.884 995.275 431.884C990.91 431.884 986.595 431.07 982.611 429.494C977.897 427.67 972.791 426.771 967.646 426.859C962.5 426.947 957.438 428.019 952.807 430.002C950.164 431.239 947.222 431.892 944.232 431.908C932.152 431.908 922.086 421.157 920 406.961C922.417 405.41 924.469 403.458 926.04 401.213C933.123 391.13 944.016 384.667 956.42 384.667C968.823 384.667 979.573 391.018 986.655 401.038C988.786 404.045 991.759 406.516 995.285 408.212C998.812 409.909 1002.77 410.774 1006.79 410.725H1007.09C1016.66 410.725 1025 417.537 1029.04 427.462Z" fill="#FCFDD3"/>
<path id="Vector_10" opacity="0.1" d="M1065.86 382.952L1046.33 393.892L1058.2 374.837C1054.84 372.464 1050.69 371.15 1046.39 371.106H1046.07C1044.71 371.133 1043.36 371.048 1042.02 370.852L1035.41 374.551L1038.25 369.994C1033.55 368.547 1029.5 365.83 1026.65 362.229L1014.8 368.867L1022.3 356.846C1015.36 349.51 1006.12 345 995.75 345C983.437 345 972.382 351.463 965.371 361.562C963.272 364.573 960.309 367.04 956.783 368.713C953.257 370.386 949.292 371.206 945.292 371.09H944.645C931.037 371.09 920.017 384.714 920.017 401.515C920.017 418.315 931.037 431.939 944.645 431.939C947.636 431.93 950.579 431.276 953.219 430.034C957.85 428.051 962.913 426.978 968.058 426.891C973.204 426.803 978.309 427.702 983.023 429.526C987.028 431.107 991.364 431.93 995.75 431.939C1000.09 431.938 1004.37 431.132 1008.33 429.573C1013.01 427.784 1018.07 426.903 1023.17 426.991C1028.27 427.079 1033.29 428.132 1037.89 430.081C1040.5 431.295 1043.41 431.933 1046.37 431.939C1059.96 431.939 1071 418.315 1071 401.515C1071.07 395.044 1069.3 388.662 1065.86 382.952Z" fill="#FCFDD3"/>
</g>
<g id="Cloud 5">
<path id="Vector_11" opacity="0.1" d="M1296.79 291.13C1291.3 290.095 1285.62 290.714 1280.48 292.908C1277.4 294.286 1274.07 294.999 1270.69 294.999C1267.31 294.999 1263.98 294.286 1260.9 292.908C1257.25 291.313 1253.31 290.526 1249.33 290.603C1245.35 290.68 1241.44 291.618 1237.86 293.353C1235.82 294.436 1233.55 295.008 1231.23 295.02C1221.9 295.02 1214.13 285.615 1212.52 273.195C1214.39 271.834 1215.97 270.126 1217.19 268.166C1222.66 259.344 1231.08 253.69 1240.65 253.69C1250.23 253.69 1258.56 259.247 1264.04 268.013C1265.67 270.643 1267.96 272.808 1270.67 274.299C1273.39 275.791 1276.44 276.558 1279.54 276.529H1279.79C1287.15 276.487 1293.58 282.447 1296.79 291.13Z" fill="#FCFDD3"/>
<path id="Vector_12" opacity="0.1" d="M1325.16 252.189L1310.08 261.761L1319.23 245.09C1316.64 243.012 1313.42 241.862 1310.1 241.825H1309.87C1308.82 241.85 1307.77 241.775 1306.74 241.603L1301.61 244.798L1303.81 240.811C1300.19 239.544 1297.06 237.167 1294.86 234.018L1285.68 239.881L1291.46 229.364C1286.11 222.945 1278.96 219 1270.95 219C1261.44 219 1252.89 224.654 1247.48 233.49C1245.85 236.123 1243.56 238.281 1240.84 239.744C1238.11 241.208 1235.05 241.926 1231.96 241.825H1231.5C1221 241.825 1212.47 253.745 1212.47 268.444C1212.47 283.142 1221 295.062 1231.5 295.062C1233.81 295.057 1236.09 294.484 1238.13 293.395C1241.7 291.66 1245.62 290.722 1249.59 290.645C1253.57 290.568 1257.52 291.355 1261.16 292.95C1264.26 294.334 1267.61 295.053 1271.01 295.062C1274.36 295.058 1277.67 294.353 1280.73 292.992C1284.35 291.427 1288.26 290.656 1292.19 290.733C1296.13 290.81 1300.01 291.732 1303.56 293.436C1305.58 294.497 1307.83 295.054 1310.12 295.062C1320.63 295.062 1329.15 283.142 1329.15 268.444C1329.2 262.777 1327.83 257.188 1325.16 252.189Z" fill="#FCFDD3"/>
</g>
<g id="Cloud 6">
<path id="Vector_13" opacity="0.1" d="M1406.14 465.009C1398.3 463.521 1390.18 464.406 1382.84 467.552C1378.44 469.516 1373.68 470.532 1368.85 470.532C1364.03 470.532 1359.27 469.516 1354.86 467.552C1349.66 465.272 1344.03 464.148 1338.35 464.259C1332.67 464.369 1327.08 465.71 1321.97 468.191C1319.05 469.741 1315.8 470.556 1312.49 470.566C1299.16 470.566 1288.06 457.132 1285.75 439.405C1288.41 437.455 1290.68 435.012 1292.42 432.209C1300.24 419.608 1312.35 411.523 1325.95 411.523C1339.55 411.523 1351.52 419.511 1359.3 431.987C1361.64 435.76 1364.91 438.864 1368.81 440.996C1372.7 443.129 1377.08 444.217 1381.52 444.157H1381.87C1392.4 444.087 1401.6 452.603 1406.14 465.009Z" fill="#FCFDD3"/>
<path id="Vector_14" opacity="0.1" d="M1446.71 409.37L1425.15 423.054L1438.23 399.242C1434.52 396.287 1429.93 394.65 1425.19 394.588H1424.84C1423.34 394.603 1421.85 394.491 1420.37 394.255L1413.06 398.881L1416.2 393.185C1411.02 391.376 1406.54 387.972 1403.42 383.46L1390.33 391.796L1398.67 376.778C1391.01 367.595 1380.7 361.954 1369.37 361.954C1355.77 361.954 1343.65 370.054 1335.83 382.654C1333.52 386.438 1330.24 389.538 1326.34 391.638C1322.43 393.737 1318.04 394.76 1313.6 394.602H1312.87C1297.85 394.602 1285.68 411.634 1285.68 432.626C1285.68 453.618 1297.85 470.65 1312.87 470.65C1316.17 470.639 1319.42 469.829 1322.34 468.288C1327.45 465.802 1333.04 464.456 1338.72 464.343C1344.4 464.231 1350.04 465.354 1355.24 467.635C1359.64 469.611 1364.4 470.638 1369.22 470.65C1374.04 470.662 1378.81 469.658 1383.22 467.705C1388.38 465.467 1393.97 464.365 1399.6 464.472C1405.23 464.58 1410.76 465.896 1415.84 468.33C1418.73 469.842 1421.94 470.638 1425.2 470.65C1440.22 470.65 1452.39 453.631 1452.39 432.626C1452.48 424.52 1450.52 416.522 1446.71 409.37Z" fill="#FCFDD3"/>
</g>
<g id="Totoro">
<ellipse id="Ellipse 51" cx="754.461" cy="722.759" rx="19.5689" ry="39.9532" transform="rotate(-0.113127 754.461 722.759)" fill="#C4C4C4"/>
<path id="Ellipse 52" d="M768.37 746.786C772.629 747.703 765.544 761.06 754.54 762.713C743.733 762.734 734.936 744.864 734.892 722.798C734.849 700.733 743.575 682.828 754.382 682.806C750.024 746.822 758.989 744.766 768.37 746.786Z" fill="#808080" fill-opacity="0.12"/>
<g id="Ear">
<rect id="Rectangle 25" x="718.74" y="530.91" width="10.5996" height="13.0457" transform="rotate(-22.3505 718.74 530.91)" fill="#C4C4C4"/>
<path id="Ellipse 60" d="M732.639 527.321C738.253 534.192 728.351 535.452 727.138 536.132C725.924 536.813 718.254 543.329 715.685 535.78C714.082 531.068 705.741 508.295 710.66 506.89C716.688 503.185 726.299 519.56 732.639 527.321Z" fill="#C4C4C4"/>
<path id="Ellipse 61" d="M788.371 536.483C786.339 545.12 779.311 538.032 778.032 537.483C776.752 536.935 766.914 534.817 771.338 528.184C774.1 524.043 787.089 503.561 791.198 506.608C797.806 509.134 790.667 526.728 788.371 536.483Z" fill="#C4C4C4"/>
<rect id="Rectangle 24" x="777.203" y="527.023" width="10.5996" height="13.0457" transform="rotate(27.2944 777.203 527.023)" fill="#C4C4C4"/>
</g>
<g id="Group 29">
<path id="Rectangle 30" opacity="0.5" d="M824.557 695.914C825.327 695.624 825.744 694.756 825.491 693.974L822.007 683.239C821.905 682.927 821.573 682.767 821.266 682.883C820.804 683.057 820.553 683.578 820.706 684.047L824.557 695.914Z" fill="black"/>
<path id="Rectangle 31" opacity="0.5" d="M820.378 701.104C821.066 701.01 821.558 700.375 821.477 699.685L820.113 688.069C820.08 687.793 819.831 687.6 819.555 687.637C819.143 687.693 818.847 688.074 818.896 688.488L820.378 701.104Z" fill="black"/>
<path id="Rectangle 32" opacity="0.5" d="M816.391 702.67C817.129 702.695 817.745 702.117 817.766 701.379L818.101 689.786C818.11 689.491 817.877 689.243 817.582 689.233C817.14 689.218 816.77 689.565 816.758 690.008L816.391 702.67Z" fill="black"/>
</g>
<g id="Group 40">
<path id="Rectangle 30_2" opacity="0.5" d="M824.557 695.914C825.327 695.624 825.744 694.756 825.491 693.974L822.007 683.239C821.905 682.927 821.573 682.767 821.266 682.883C820.804 683.057 820.553 683.578 820.706 684.047L824.557 695.914Z" fill="black"/>
<path id="Rectangle 31_2" opacity="0.5" d="M820.378 701.104C821.066 701.01 821.558 700.375 821.477 699.685L820.113 688.069C820.08 687.793 819.831 687.6 819.555 687.637C819.143 687.693 818.847 688.074 818.896 688.488L820.378 701.104Z" fill="black"/>
<path id="Rectangle 32_2" opacity="0.5" d="M816.391 702.67C817.129 702.695 817.745 702.117 817.766 701.379L818.101 689.786C818.11 689.491 817.877 689.243 817.582 689.233C817.14 689.218 816.77 689.565 816.758 690.008L816.391 702.67Z" fill="black"/>
</g>
<g id="Group 41">
<path id="Rectangle 30_3" opacity="0.5" d="M679.978 698.646C679.207 698.359 678.786 697.492 679.037 696.709L682.478 685.961C682.579 685.648 682.91 685.487 683.218 685.602C683.68 685.774 683.933 686.294 683.782 686.764L679.978 698.646Z" fill="black"/>
<path id="Rectangle 31_3" opacity="0.5" d="M684.177 703.818C683.489 703.727 682.994 703.094 683.072 702.404L684.391 690.782C684.423 690.506 684.671 690.312 684.947 690.348C685.36 690.403 685.656 690.783 685.609 691.197L684.177 703.818Z" fill="black"/>
<path id="Rectangle 32_3" opacity="0.5" d="M688.17 705.37C687.432 705.398 686.814 704.822 686.79 704.084L686.409 692.492C686.399 692.197 686.631 691.948 686.926 691.937C687.369 691.921 687.739 692.266 687.754 692.709L688.17 705.37Z" fill="black"/>
</g>
<g id="Group 42">
<path id="Rectangle 30_4" opacity="0.5" d="M679.978 698.646C679.207 698.359 678.786 697.492 679.037 696.709L682.478 685.961C682.579 685.648 682.91 685.487 683.218 685.602C683.68 685.774 683.933 686.294 683.782 686.764L679.978 698.646Z" fill="black"/>
<path id="Rectangle 31_4" opacity="0.5" d="M684.177 703.818C683.489 703.727 682.994 703.094 683.072 702.404L684.391 690.782C684.423 690.506 684.671 690.312 684.947 690.348C685.36 690.403 685.656 690.783 685.609 691.197L684.177 703.818Z" fill="black"/>
<path id="Rectangle 32_4" opacity="0.5" d="M688.17 705.37C687.432 705.398 686.814 704.822 686.79 704.084L686.409 692.492C686.399 692.197 686.631 691.948 686.926 691.937C687.369 691.921 687.739 692.266 687.754 692.709L688.17 705.37Z" fill="black"/>
</g>
<circle id="Ellipse 18" cx="751.03" cy="637.151" r="75.015" transform="rotate(-0.113127 751.03 637.151)" fill="#C4C4C4"/>
<circle id="Ellipse 19" cx="751.338" cy="586.19" r="52.592" transform="rotate(-0.113127 751.338 586.19)" fill="#C4C4C4"/>
<path id="Ellipse 49" d="M699.147 583.438C699.125 572.157 703.185 563.861 709.03 554.948C716.197 546.713 717.011 545.896 725.97 540.578L725.979 545.063C717.213 547.742 711.935 578.496 706.49 585.87C697.581 616.056 710.159 585.863 693.044 589.566L699.147 583.438Z" fill="#808080" fill-opacity="0.55"/>
<path id="Ellipse 50" d="M722.298 539.362C721.484 539.771 717.145 540.595 715.364 537.337C714.696 536.115 714.135 534.486 712.076 524.297L708.787 510.443C709.588 503.103 712.051 511.659 715.325 517.768C714.693 526.912 721.878 532.84 725.97 540.578L723.527 542.213L722.298 539.362Z" fill="#808080" fill-opacity="0.55"/>
<circle id="Ellipse 29" cx="726.418" cy="561.369" r="5.70748" transform="rotate(-0.113127 726.418 561.369)" fill="#ECECEC"/>
<path id="Ellipse 31" d="M759.344 563.452C756.866 561.947 753.997 561.209 751.101 561.332C748.204 561.456 745.408 562.434 743.067 564.145L743.435 564.649C745.677 563.011 748.354 562.074 751.127 561.956C753.901 561.838 756.647 562.544 759.02 563.985L759.344 563.452Z" fill="#3F3D56"/>
<ellipse id="Ellipse 32" cx="751.704" cy="565.396" rx="6.52283" ry="1.63071" transform="rotate(-0.113127 751.704 565.396)" fill="#3F3D56"/>
<g id="Ellipse 33">
<circle cx="726.42" cy="562.184" r="3.26142" transform="rotate(-0.113127 726.42 562.184)" fill="#3F3D56"/>
<circle cx="726.42" cy="562.184" r="3.26142" transform="rotate(-0.113127 726.42 562.184)" fill="#3F3D56"/>
</g>
<line id="mouth" x1="750.927" y1="585.282" x2="753.373" y2="585.277" stroke="#3F3D56"/>
<line id="Line 5" x1="790.654" y1="566.488" x2="818.354" y2="555.019" stroke="#3F3D56"/>
<line id="Line 6" x1="793.967" y1="570.587" x2="825.747" y2="560.696" stroke="#3F3D56"/>
<line id="Line 7" x1="796.558" y1="573.55" x2="828.357" y2="572.928" stroke="#3F3D56"/>
<g id="Group 20">
<line id="Line 8" y1="-0.5" x2="29.9799" y2="-0.5" transform="matrix(-0.925426 -0.378928 -0.378919 0.92543 710.937 567.107)" stroke="#3F3D56"/>
<line id="Line 9" y1="-0.5" x2="33.2837" y2="-0.5" transform="matrix(-0.955985 -0.293415 -0.293408 0.955987 707.685 571.235)" stroke="#3F3D56"/>
<line id="Line 10" y1="-0.5" x2="31.8048" y2="-0.5" transform="matrix(-0.999878 -0.0156253 -0.0156248 0.999878 705.244 574.23)" stroke="#3F3D56"/>
</g>
<circle id="Ellipse 37" cx="726.011" cy="560.962" r="1.22303" transform="rotate(-0.113127 726.011 560.962)" fill="#C4C4C4"/>
<circle id="Ellipse 38" cx="776.156" cy="561.271" r="5.70748" transform="rotate(-0.113127 776.156 561.271)" fill="#ECECEC"/>
<g id="Ellipse 39">
<circle cx="776.159" cy="562.086" r="3.26142" transform="rotate(-12.388 776.159 562.086)" fill="#3F3D56"/>
<circle cx="776.159" cy="562.086" r="3.26142" transform="rotate(-12.388 776.159 562.086)" fill="#3F3D56"/>
</g>
<circle id="Ellipse 40" cx="775.498" cy="560.979" r="1.22303" transform="rotate(-12.388 775.498 560.979)" fill="#C4C4C4"/>
<g id="Group 26">
<g id="Group 25">
<path id="Ellipse 41" d="M695.457 589.755C692.578 589.343 689.461 590.903 686.372 594.3C683.283 597.698 680.314 602.832 677.72 609.264C675.126 615.696 672.983 623.234 671.474 631.234C669.966 639.234 669.137 647.457 669.059 655.2C668.981 662.943 669.656 669.976 671.025 675.697C672.395 681.418 674.419 685.657 676.924 688.052C679.429 690.446 682.341 690.924 685.411 689.446C688.48 687.967 691.616 684.576 694.55 679.561L693.683 674.1C691.155 678.422 688.452 681.345 685.806 682.62C683.16 683.894 680.65 683.482 678.49 681.418C676.331 679.354 674.586 675.7 673.406 670.769C672.225 665.837 671.643 659.775 671.711 653.101C671.778 646.426 672.493 639.338 673.793 632.442C675.093 625.546 676.94 619.049 679.176 613.504C681.413 607.96 683.972 603.534 686.634 600.606C689.297 597.677 691.984 596.333 694.465 596.688L695.457 589.755Z" fill="#C4C4C4"/>
<ellipse id="Ellipse 46" rx="15.2633" ry="44.8001" transform="matrix(-0.99578 -0.0917687 -0.0917687 0.99578 685.713 641.852)" fill="#C4C4C4"/>
</g>
<ellipse id="Ellipse 49_2" cx="686.187" cy="690.886" rx="5.34685" ry="16.0406" transform="rotate(-43.8757 686.187 690.886)" fill="#C4C4C4"/>
</g>
<g id="Group 34">
<g id="Group 25_2">
<path id="Ellipse 41_2" d="M695.465 595.388C692.587 595.005 689.469 596.457 686.38 599.619C683.29 602.781 680.321 607.56 677.726 613.545C675.131 619.531 672.987 626.547 671.477 633.991C669.968 641.436 669.138 649.089 669.059 656.295C668.98 663.5 669.653 670.045 671.022 675.369C672.391 680.693 674.414 684.637 676.919 686.865C679.424 689.093 682.336 689.537 685.406 688.161C688.475 686.785 691.612 683.628 694.546 678.962L693.68 673.879C691.151 677.902 688.448 680.622 685.802 681.809C683.156 682.995 680.646 682.612 678.486 680.692C676.327 678.771 674.583 675.371 673.403 670.782C672.223 666.193 671.642 660.552 671.711 654.34C671.779 648.129 672.494 641.533 673.795 635.115C675.096 628.698 676.945 622.651 679.182 617.491C681.419 612.332 683.978 608.213 686.641 605.487C689.304 602.761 691.991 601.51 694.473 601.84L695.465 595.388Z" fill="#C4C4C4"/>
<ellipse id="Ellipse 46_2" rx="15.236" ry="41.7766" transform="matrix(-0.997551 -0.0854157 -0.0985566 0.993746 685.714 643.87)" fill="#C4C4C4"/>
</g>
<ellipse id="Ellipse 49_3" rx="5.17247" ry="15.4694" transform="matrix(0.745221 -0.666817 0.718562 0.695462 686.182 689.501)" fill="#C4C4C4"/>
<path id="Ellipse 47" d="M687.806 696.743C684.559 696.366 681.536 694.565 678.909 691.442C676.282 688.32 674.103 683.938 672.496 678.546C670.889 673.154 669.885 666.858 669.543 660.017C669.2 653.176 669.525 645.925 670.5 638.676C671.474 631.428 672.15 624.327 674.292 617.774C676.435 611.222 679.074 605.349 682.059 600.49C685.043 595.632 686.007 594.038 689.379 591.612C692.752 589.187 703.229 585.47 702.849 599.74L695.224 641.548L687.806 696.743Z" fill="#808080" fill-opacity="0.55"/>
</g>
<g id="Group 27">
<g id="Group 25_3">
<path id="Ellipse 41_3" d="M807.003 590.351C809.65 589.928 812.523 591.476 815.377 594.861C818.232 598.247 820.982 603.37 823.393 609.792C825.803 616.214 827.803 623.744 829.221 631.738C830.639 639.732 831.432 647.952 831.533 655.695C831.635 663.438 831.041 670.473 829.802 676.2C828.564 681.926 826.719 686.172 824.423 688.576C822.128 690.98 819.451 691.469 816.622 690.002C813.793 688.535 810.896 685.156 808.178 680.153L808.954 674.688C811.297 679 813.794 681.913 816.233 683.178C818.672 684.442 820.979 684.021 822.957 681.949C824.936 679.877 826.527 676.216 827.594 671.28C828.662 666.344 829.174 660.28 829.086 653.606C828.999 646.931 828.315 639.846 827.093 632.955C825.871 626.064 824.147 619.574 822.069 614.038C819.991 608.502 817.62 604.086 815.16 601.168C812.7 598.249 810.223 596.915 807.942 597.28L807.003 590.351Z" fill="#C4C4C4"/>
<ellipse id="Ellipse 46_3" rx="14.0741" ry="44.7082" transform="matrix(0.99299 -0.103615 0.08837 0.997473 816.165 642.41)" fill="#C4C4C4"/>
</g>
<ellipse id="Ellipse 49_4" rx="5.12767" ry="15.4385" transform="matrix(-0.694134 -0.719846 -0.659553 0.751658 815.914 691.445)" fill="#C4C4C4"/>
</g>
<g id="Group 21">
<circle id="Ellipse 20" cx="752.16" cy="661.294" r="73.0678" transform="rotate(-0.113127 752.16 661.294)" fill="#FCFDD3"/>
<path id="Ellipse 23" d="M823.274 678.593C820.036 690.83 816.38 697.361 809.468 706.751C802.366 715.77 792.722 722.733 782.303 727.563C771.884 732.394 760.47 734.702 748.989 734.299C737.507 733.897 726.281 730.795 716.223 725.247C706.164 719.698 697.556 711.858 691.097 702.364C684.638 692.87 680.51 681.99 679.049 670.605C677.588 659.221 678.835 647.654 682.688 636.844C686.541 626.033 692.892 616.284 701.225 608.387L695.051 639.312C695.051 639.312 694.107 653.21 698.877 663.394C703.647 673.579 703.523 674.198 709.428 681.033C714.198 686.555 714.437 686.962 718.56 689.908C725.867 694.278 727.176 694.682 732.805 697.933C745.044 702.258 745.454 703.699 760.212 703.669C774.657 703.641 778.07 698.394 783.583 695.838C789.096 693.282 801.873 681.203 805.631 676.431C809.389 671.659 815.815 665.756 824.84 653.036L825.229 659.02L825.242 665.305L824.486 672.883L823.274 678.593Z" fill="#808080" fill-opacity="0.5"/>
<g id="Star 4">
<path d="M721.4 608.405L714.192 609.488L702.592 615.839L705.969 610.724L708.232 607.389L712.039 603.592L716.254 600.989L721.612 602.153L726.591 604.63L730.073 607.101L734.467 611.049L721.4 608.405Z" fill="#C4C4C4"/>
<path d="M721.499 607.915L721.413 607.897L721.326 607.91L714.117 608.994L714.029 609.007L713.952 609.05L704.12 614.433L706.385 611.002L708.619 607.709L712.351 603.987L716.345 601.521L721.445 602.629L726.334 605.06L729.76 607.493L732.768 610.195L721.499 607.915Z" stroke="#3F3D56" stroke-opacity="0.74"/>
</g>
<g id="Star 7">
<path d="M709.009 626.87L703.253 628.239L694.306 634.169L696.688 629.801L698.29 626.949L701.108 623.618L704.34 621.224L708.753 621.799L712.95 623.462L715.934 625.222L719.758 628.114L709.009 626.87Z" fill="#C4C4C4"/>
<path d="M709.067 626.373L708.979 626.363L708.893 626.383L703.137 627.753L703.051 627.773L702.977 627.822L695.71 632.639L697.125 630.043L698.702 627.236L701.453 623.985L704.476 621.746L708.627 622.287L712.729 623.912L715.656 625.638L717.994 627.407L709.067 626.373Z" stroke="#3F3D56" stroke-opacity="0.74"/>
</g>
<g id="Star 8">
<path d="M741.182 625.687L735.266 625.762L725.237 629.588L728.517 625.848L730.705 623.416L734.185 620.783L737.863 619.156L742.043 620.683L745.773 623.224L748.3 625.596L751.397 629.256L741.182 625.687Z" fill="#C4C4C4"/>
<path d="M741.347 625.215L741.264 625.186L741.176 625.187L735.259 625.262L735.17 625.263L735.087 625.295L726.942 628.403L728.891 626.18L731.045 623.786L734.441 621.217L737.881 619.694L741.813 621.131L745.459 623.616L747.937 625.941L749.831 628.179L741.347 625.215Z" stroke="#3F3D56" stroke-opacity="0.74"/>
</g>
<g id="Star 9">
<path d="M774.063 625.622L768.147 625.697L758.118 629.523L761.398 625.783L763.586 623.351L767.066 620.718L770.744 619.091L774.924 620.618L778.654 623.16L781.181 625.531L784.278 629.191L774.063 625.622Z" fill="#C4C4C4"/>
<path d="M774.228 625.15L774.144 625.121L774.056 625.122L768.14 625.197L768.051 625.198L767.968 625.23L759.823 628.338L761.772 626.115L763.926 623.721L767.322 621.152L770.762 619.63L774.693 621.067L778.34 623.551L780.817 625.876L782.711 628.114L774.228 625.15Z" stroke="#3F3D56" stroke-opacity="0.74"/>
</g>
<g id="Star 10">
<path d="M804.528 629.434L798.743 628.195L788.115 629.702L792.144 626.782L794.816 624.896L798.794 623.101L802.741 622.33L806.477 624.747L809.551 628.052L811.489 630.925L813.697 635.18L804.528 629.434Z" fill="#C4C4C4"/>
<path d="M804.794 629.011L804.719 628.964L804.633 628.946L798.847 627.707L798.76 627.688L798.672 627.7L790.04 628.924L792.434 627.189L795.066 625.333L798.946 623.581L802.638 622.859L806.154 625.133L809.159 628.364L811.058 631.181L812.409 633.783L804.794 629.011Z" stroke="#3F3D56" stroke-opacity="0.74"/>
</g>
<g id="Star 5">
<path d="M756.884 605.178L749.594 605.192L737.189 609.774L741.28 605.209L744.008 602.242L748.329 599.045L752.881 597.088L758.011 599.025L762.573 602.206L765.654 605.161L769.421 609.71L756.884 605.178Z" fill="#C4C4C4"/>
<path d="M757.054 604.708L756.971 604.678L756.883 604.678L749.593 604.692L749.505 604.693L749.421 604.723L738.906 608.606L741.65 605.545L744.343 602.616L748.58 599.481L752.894 597.627L757.776 599.471L762.255 602.593L765.287 605.502L767.866 608.616L757.054 604.708Z" stroke="#3F3D56" stroke-opacity="0.74"/>
</g>
<g id="Star 6">
<path d="M791.959 610.833L784.789 609.518L771.756 611.762L776.611 608.019L779.834 605.599L784.666 603.243L789.498 602.149L794.188 604.988L798.095 608.946L800.585 612.414L803.461 617.573L791.959 610.833Z" fill="#C4C4C4"/>
<path d="M792.212 610.401L792.136 610.357L792.049 610.341L784.879 609.027L784.792 609.011L784.704 609.026L773.658 610.927L776.914 608.417L780.096 606.028L784.833 603.718L789.412 602.681L793.876 605.384L797.711 609.27L800.163 612.682L802.131 616.214L792.212 610.401Z" stroke="#3F3D56" stroke-opacity="0.74"/>
</g>
</g>
<g id="Leg">
<ellipse id="Ellipse 22" rx="16.7721" ry="19.6543" transform="matrix(0.966562 -0.256435 0.309443 0.950918 722.378 712.899)" fill="#C4C4C4"/>
<path id="Ellipse 29_2" d="M718.528 693.885C727.901 691.821 706.428 700.233 709.184 710.44C711.94 720.648 738.461 728.946 729.088 731.01C719.423 734.244 708.809 726.927 705.934 716.333C702.653 706.554 708.745 694.312 718.528 693.885Z" fill="#808080" fill-opacity="0.2"/>
<g id="Ellipse 25">
<ellipse cx="723.925" cy="722.06" rx="10.8601" ry="13.8768" transform="rotate(-16.3737 723.925 722.06)" fill="#C4C4C4"/>
<path d="M733.865 719.139C735.982 726.344 733.083 733.311 727.696 734.894C722.309 736.477 716.102 732.185 713.985 724.98C711.869 717.776 714.768 710.808 720.154 709.225C725.541 707.643 731.748 711.935 733.865 719.139Z" stroke="#3F3D56" stroke-opacity="0.47"/>
</g>
<ellipse id="Ellipse 28" cx="725.204" cy="726.949" rx="5.18791" ry="3.59014" transform="rotate(-16.3737 725.204 726.949)" fill="#ECECEC"/>
<path id="Ellipse 27" d="M734.255 725.645C735.34 729.337 732.141 733.529 727.109 735.007C722.077 736.486 717.118 734.691 716.034 730.999C714.949 727.307 718.148 723.115 723.18 721.637C728.212 720.158 733.171 721.953 734.255 725.645Z" fill="#808080" fill-opacity="0.2"/>
</g>
<g id="Leg_2">
<ellipse id="Ellipse 22_2" rx="16.5964" ry="19.6336" transform="matrix(-0.966859 -0.255312 -0.302559 0.953131 788.69 713.863)" fill="#C4C4C4"/>
<path id="Ellipse 30" d="M786.209 695.79C789.059 694.153 776.616 701.136 778.634 708.61C780.652 716.084 785.433 715.768 793.718 723.56C778.689 736.574 773.636 728.838 771.577 718.649C771.146 706.827 778.873 697.027 786.209 695.79Z" fill="#808080" fill-opacity="0.2"/>
<g id="Ellipse 25_2">
<ellipse rx="10.748" ry="13.8647" transform="matrix(-0.959699 -0.281031 -0.275213 0.961383 787.196 723.03)" fill="#C4C4C4"/>
<path d="M777.361 720.15C775.294 727.367 778.192 734.319 783.517 735.878C788.843 737.438 794.965 733.127 797.031 725.91C799.097 718.693 796.199 711.741 790.874 710.181C785.548 708.622 779.427 712.933 777.361 720.15Z" stroke="#3F3D56" stroke-opacity="0.47"/>
</g>
<ellipse id="Ellipse 28_2" rx="5.13437" ry="3.587" transform="matrix(-0.959699 -0.281031 -0.275213 0.961383 785.951 727.924)" fill="#ECECEC"/>
<path id="Ellipse 27_2" d="M776.786 727.495C775.728 731.191 778.908 735.37 783.889 736.829C788.87 738.287 793.766 736.473 794.824 732.777C795.882 729.081 792.702 724.902 787.721 723.443C782.74 721.984 777.844 723.798 776.786 727.495Z" fill="#808080" fill-opacity="0.2"/>
</g>
<g id="Group 38">
<path id="Rectangle 36" d="M709.534 711.293C710.054 711.02 710.706 711.096 711.157 711.534L715.522 715.757C715.712 715.941 715.722 716.249 715.545 716.446C715.369 716.642 715.071 716.652 714.882 716.469L709.534 711.293Z" fill="#3F3D56" stroke="#3F3D56" stroke-width="0.978357"/>
<path id="Rectangle 37" d="M716.977 706.916C717.548 706.839 718.125 707.124 718.402 707.675L721.187 713.227C721.302 713.458 721.212 713.744 720.985 713.866C720.758 713.989 720.48 713.901 720.365 713.671L716.977 706.916Z" fill="#3F3D56" stroke="#3F3D56" stroke-width="0.966947"/>
<path id="Rectangle 38" d="M726.608 704.706C727.152 704.886 727.554 705.389 727.576 705.996L727.813 712.294C727.823 712.547 727.625 712.761 727.372 712.771C727.118 712.782 726.905 712.584 726.895 712.331L726.608 704.706Z" fill="#3F3D56" stroke="#3F3D56" stroke-width="0.959419"/>
</g>
<g id="Group 39">
<path id="Rectangle 36_2" d="M801.789 711.926C801.268 711.655 800.617 711.734 800.167 712.173L795.819 716.414C795.63 716.599 795.621 716.907 795.798 717.103C795.976 717.298 796.273 717.307 796.462 717.123L801.789 711.926Z" fill="#3F3D56" stroke="#3F3D56" stroke-width="0.978357"/>
<path id="Rectangle 37_2" d="M794.332 707.579C793.76 707.504 793.184 707.792 792.91 708.343L790.147 713.907C790.032 714.138 790.124 714.424 790.351 714.545C790.579 714.667 790.856 714.578 790.971 714.347L794.332 707.579Z" fill="#3F3D56" stroke="#3F3D56" stroke-width="0.966947"/>
<path id="Rectangle 38_2" d="M784.69 705.406C784.147 705.589 783.748 706.093 783.727 706.701L783.515 712.999C783.507 713.253 783.705 713.466 783.959 713.475C784.212 713.484 784.425 713.286 784.433 713.033L784.69 705.406Z" fill="#3F3D56" stroke="#3F3D56" stroke-width="0.959419"/>
</g>
</g>
<g id="Group 54">
<g id="spaceship">
<path id="Ellipse 62" d="M266.878 500.054C268.724 506.554 135.689 500.943 117.134 500.054C98.5783 499.165 -8.42046 512.054 -4.77307 500.054C22.8857 409.056 110.635 142.645 137.39 84.6445C165.634 161.145 241.878 412.054 266.878 500.054Z" fill="url(#paint5_linear)"/>
<circle id="Ellipse 12" cx="33.2378" cy="46.0136" r="6.80712" transform="rotate(1.7888 33.2378 46.0136)" fill="#FCFDD3"/>
<ellipse id="Ellipse 1" cx="137.599" cy="84.4604" rx="175.851" ry="46.5153" transform="rotate(1.7888 137.599 84.4604)" fill="#B5BCCA"/>
<path id="Ellipse 18_2" d="M309.759 82.0992C322.469 92.8768 300.962 107.482 282.414 114.727C263.867 121.973 238.916 125.525 207.159 128.347C175.402 131.17 140.164 131.313 105.901 128.76C71.6385 126.208 39.89 121.073 14.6704 114.005C-10.5492 106.938 -28.1071 98.2554 -35.783 89.0555C-43.4589 79.8557 -40.9081 70.5519 -28.4531 62.3206C-15.9981 54.0893 5.80164 47.3002 34.1894 42.8118C62.5772 38.3234 96.2781 36.3374 131.03 37.1048L98.7314 41.9424C80.6438 44.6514 78.5766 44.961 63.2676 48.5832C48.39 50.9355 41.0055 56.666 34.478 60.9799C27.9506 65.2938 28.9556 81.3572 40.8821 87.4967C44.9049 92.3182 46.7169 100.361 64.2604 104.602C81.804 108.844 87.6699 111.335 105.626 112.673C139.29 115.181 142.704 115.046 153.686 116.043C197.394 115.057 181.373 117.457 213.414 112.658C245.455 107.859 255.621 108.701 271.295 103.989L289.911 97.7531L309.759 82.0992Z" fill="#808080" fill-opacity="0.26"/>
<circle id="Ellipse 5" cx="108.843" cy="96.1263" r="7.9357" transform="rotate(1.7888 108.843 96.1263)" fill="#FCFDD3"/>
<circle id="Ellipse 17" cx="193.551" cy="94.8441" r="7.9357" transform="rotate(1.7888 193.551 94.8441)" fill="#FCFDD3"/>
<path id="Ellipse 2" d="M193.303 74.0781C178.722 80.5004 159.208 83.8236 138.888 83.3449C118.569 82.8663 99.0376 78.6233 84.4256 71.5133C69.8136 64.4034 61.2669 54.9842 60.5932 45.248C59.9195 35.5118 67.1717 26.2222 80.8158 19.3441C94.4599 12.466 113.426 8.53884 133.702 8.39324C153.978 8.24763 173.975 11.895 189.462 18.5639C204.948 25.2328 214.711 34.4003 216.685 44.1271C218.659 53.854 212.689 63.3774 200.038 70.6831L138.803 45.8897L193.303 74.0781Z" fill="#B5BCCA" fill-opacity="0.5"/>
<path id="Ellipse 13" d="M164.962 16.2644C173.098 17.7051 181.129 20.9369 188.492 25.7329L188.081 26.5512C180.846 21.8384 172.954 18.6626 164.959 17.247L164.962 16.2644Z" fill="white" fill-opacity="0.67"/>
<ellipse id="Ellipse 14" cx="139.856" cy="56.4368" rx="65.0441" ry="12.4797" transform="rotate(2.30854 139.856 56.4368)" fill="#3F3D56"/>
<path id="Ellipse 19_2" d="M223.408 62.7983C223.051 71.6521 185.353 77.3214 139.208 75.4611C93.0621 73.6008 55.9431 64.9154 56.3 56.0616C56.6569 47.2079 94.3546 41.5386 140.5 43.3989C186.646 45.2592 223.765 53.9446 223.408 62.7983ZM68.2825 56.5447C67.9768 64.1287 99.7725 71.5685 139.3 73.162C178.828 74.7555 211.119 69.8993 211.425 62.3153C211.731 54.7312 179.935 47.2914 140.407 45.6979C100.88 44.1044 68.5883 48.9607 68.2825 56.5447Z" fill="#808080" fill-opacity="0.12"/>
<circle id="Ellipse 15" cx="38.462" cy="72.0872" r="7.7507" transform="rotate(1.7888 38.462 72.0872)" fill="#FCFDD3"/>
<circle id="Ellipse 16" cx="256.01" cy="69.1602" r="7.7507" transform="rotate(1.7888 256.01 69.1602)" fill="#FCFDD3"/>
<g id="babyYoda">
<ellipse id="Ellipse 175" rx="11.742" ry="5.47599" transform="matrix(0.999121 0.0419229 -0.0343149 0.999411 138.937 41.0441)" fill="#C1AB9C"/>
<ellipse id="Ellipse 178" rx="11.742" ry="5.47599" transform="matrix(0.999121 0.0419229 -0.0343149 0.999411 138.937 41.0441)" fill="#808080" fill-opacity="0.4"/>
<path id="Ellipse 173" d="M153.549 67.5525C151.036 68.6362 143.255 68.2123 139.405 68.02C131.281 67.7943 125.195 66.7907 124.581 65.8126C124.839 56.5235 131.403 37.8631 139.527 38.0887C147.651 38.3144 153.807 58.2634 153.549 67.5525Z" fill="#C1AB9C"/>
<path id="Ellipse 177" d="M144.139 45.1732C140.986 45.0856 147.458 45.2654 139.334 45.0398C131.21 44.8141 135.129 49.0675 133.848 50.5223C134.478 44.079 131.403 37.863 139.527 38.0887C147.651 38.3143 143.402 43.332 144.139 45.1732Z" fill="#808080" fill-opacity="0.4"/>
<g id="yodahead">
<g id="Group 43">
<path id="Ellipse 137_2" d="M133.602 28.6398C133.455 33.9392 130.148 42.7428 123.275 34.7797C118.139 34.637 116.945 28.1949 112.88 23.1902C116.132 23.2806 118.453 23.345 123.589 23.4877C128.725 23.6303 133.749 23.3405 133.602 28.6398Z" fill="#D3FDD7"/>
<path id="Ellipse 138_2" d="M127.856 28.5157C127.769 31.6554 134.482 42.7293 121.913 32.1582C118.959 32.0761 117.576 27.75 115.24 24.7869C118.961 25.3809 119.145 25.386 122.099 25.4681C125.053 25.5501 127.943 25.376 127.856 28.5157Z" fill="url(#paint6_linear)"/>
<path id="Ellipse 139_2" d="M128.545 27.7989C128.457 30.9386 135.171 42.0125 122.601 31.4414C119.647 31.3593 118.265 27.0332 115.929 24.0701C119.65 24.6641 119.833 24.6692 122.787 24.7513C125.741 24.8333 128.632 24.6592 128.545 27.7989Z" fill="url(#paint7_linear)"/>
</g>
<g id="Group 44">
<path id="Ellipse 137_3" d="M145.422 29.0656C145.274 34.365 148.088 43.3386 155.392 35.7692C160.528 35.9119 162.078 29.546 166.415 24.7747C163.162 24.6843 160.842 24.6199 155.706 24.4772C150.57 24.3346 145.569 23.7663 145.422 29.0656Z" fill="#D3FDD7"/>
<path id="Ellipse 138_3" d="M151.165 29.2603C151.078 32.4 143.76 43.0842 156.897 33.2271C159.851 33.3092 161.472 29.0664 163.969 26.2375C160.221 26.6241 160.037 26.619 157.083 26.537C154.129 26.4549 151.253 26.1206 151.165 29.2603Z" fill="url(#paint8_linear)"/>
<path id="Ellipse 139_3" d="M150.518 28.5062C150.431 31.6459 143.113 42.3301 156.25 32.473C159.204 32.555 160.824 28.3123 163.321 25.4834C159.573 25.87 159.39 25.8649 156.435 25.7828C153.481 25.7008 150.605 25.3665 150.518 28.5062Z" fill="url(#paint9_linear)"/>
</g>
<path id="Ellipse 136_2" d="M149.951 30.7692C152.416 38.6232 145.832 41.1768 139.006 40.9872C132.179 40.7976 126.558 39.2075 128.652 30.1776C128.804 24.7148 132.729 21.015 139.555 21.2046C146.382 21.3942 150.103 25.3064 149.951 30.7692Z" fill="#D3FDD7"/>
<path id="Ellipse 139_4" d="M150.473 34.3672C150.321 39.8321 145.456 41.1677 138.771 40.982C132.087 40.7963 127.851 39.2079 128.002 33.7431C128.154 28.2782 133.574 37.8296 140.259 38.0153C146.943 38.2009 150.624 28.9023 150.473 34.3672Z" fill="#D3FDD7"/>
<path id="Ellipse 144_2" d="M150.346 34.4862C149.207 45.0938 143.159 36.8919 139.886 36.801C136.613 36.7101 128.641 43.997 128.083 33.8678C128.834 28.7117 126.529 42.2001 139.904 36.1521C152.658 41.9723 150.653 31.6288 150.346 34.4862Z" fill="#808080" fill-opacity="0.6"/>
<ellipse id="Ellipse 145_2" rx="3.18256" ry="2.10901" transform="matrix(0.972908 0.231194 -0.123575 0.992335 134.359 30.9583)" fill="black"/>
<ellipse id="Ellipse 146_2" rx="3.18256" ry="2.10901" transform="matrix(0.984241 -0.176833 -0.0683022 -0.997665 145.361 31.2638)" fill="black"/>
<path id="Ellipse 149_2" d="M140.968 32.5776C140.955 33.0334 140.431 33.3886 139.797 33.371C139.163 33.3534 138.659 32.9696 138.672 32.5139C139.481 32.3374 139.58 31.349 139.853 31.3566C140.075 31.3628 140.364 32.4332 140.968 32.5776Z" fill="#808080" fill-opacity="0.8"/>
<path id="Ellipse 153" d="M130.016 29.2731C130.578 27.4981 133.189 26.2356 134.444 26.636C135.65 26.6983 138.271 29.1091 138.042 31.0586C136.424 27.0154 134.686 27.1014 134.441 27.0469C134.196 26.9924 132.674 26.1407 130.016 29.2731Z" fill="#808080" fill-opacity="0.9"/>
<path id="Ellipse 158_2" d="M130.628 31.7309C130.703 32.6686 132.231 34.1653 133.136 34.4723C133.951 34.8994 136.108 34.8963 136.285 34.0122C134.521 35.0601 133.376 34.3726 133.203 34.303C133.031 34.2334 131.871 34.0109 130.628 31.7309Z" fill="#808080" fill-opacity="0.9"/>
<path id="Ellipse 159" d="M131.798 26.4896C132.159 25.6947 134.001 25.3007 134.909 25.5871C135.775 25.7101 137.709 27.0522 137.59 27.9553C136.337 25.9199 135.093 25.8257 134.917 25.781C134.74 25.7363 133.63 25.216 131.798 26.4896Z" fill="#808080" fill-opacity="0.9"/>
<path id="Ellipse 154_2" d="M149.777 29.7908C149.314 27.9872 146.777 26.5817 145.502 26.9119C144.295 26.9071 141.543 29.1687 141.664 31.1279C143.504 27.1808 145.235 27.3631 145.482 27.3223C145.73 27.2815 147.297 26.5156 149.777 29.7908Z" fill="#808080" fill-opacity="0.4"/>
<path id="Ellipse 150_2" d="M140.739 32.3685C140.726 32.8492 140.306 33.2275 139.801 33.2135C139.297 33.1994 138.899 32.7984 138.912 32.3178C138.926 31.8372 139.345 31.4589 139.85 31.4729C140.354 31.4869 140.752 31.8879 140.739 32.3685Z" fill="#D3FDD7"/>
<ellipse id="Ellipse 151" cx="133.559" cy="30.1945" rx="0.627815" ry="0.671733" transform="rotate(1.591 133.559 30.1945)" fill="white"/>
<ellipse id="Ellipse 152" cx="134.682" cy="30.8376" rx="0.288408" ry="0.307744" transform="rotate(1.591 134.682 30.8376)" fill="white"/>
<ellipse id="Ellipse 160" rx="3.18256" ry="2.10901" transform="matrix(-0.984241 0.176833 0.0683022 0.997665 145.359 31.264)" fill="black"/>
<path id="Ellipse 161" d="M149.792 29.8225C149.329 28.019 146.792 26.6135 145.517 26.9436C144.309 26.9389 141.558 29.2005 141.679 31.1597C143.519 27.2126 145.25 27.3948 145.497 27.354C145.745 27.3132 147.311 26.5473 149.792 29.8225Z" fill="#808080" fill-opacity="0.9"/>
<path id="Ellipse 162" d="M149.043 32.2425C148.917 33.1746 147.308 34.5842 146.387 34.8405C145.55 35.2217 143.396 35.0988 143.269 34.2063C144.972 35.3505 146.153 34.7276 146.329 34.6677C146.506 34.6078 147.676 34.45 149.043 32.2425Z" fill="#808080" fill-opacity="0.9"/>
<path id="Ellipse 163" d="M148.165 26.9442C147.848 26.1305 146.032 25.6349 145.109 25.8705C144.238 25.9452 142.232 27.1778 142.301 28.0862C143.665 26.1235 144.912 26.0985 145.091 26.0636C145.27 26.0288 146.407 25.5709 148.165 26.9442Z" fill="#808080" fill-opacity="0.9"/>
<ellipse id="Ellipse 164" rx="0.627815" ry="0.671733" transform="matrix(-0.999614 -0.0277647 -0.0277647 0.999614 144.932 30.5105)" fill="white"/>
<ellipse id="Ellipse 165" rx="0.288408" ry="0.307744" transform="matrix(-0.999614 -0.0277647 -0.0277647 0.999614 146.061 31.334)" fill="white"/>
<path id="Ellipse 166" d="M139.935 39.3804C139.906 40.4345 139.908 40.352 139.89 40.9934C139.786 44.7484 132.765 40.6979 130.194 38.8493C131.908 39.4642 133.197 39.222 135.583 38.2496C137.969 37.2773 137.514 39.5648 139.935 39.3804Z" fill="#808080" fill-opacity="0.6"/>
<path id="Ellipse 168" d="M139.93 39.4066C139.876 41.3648 139.857 41.1008 140.005 41.0946C143.137 40.9638 145.074 41.0173 147.878 39.8564C146.174 40.0981 145.394 39.3894 144.001 38.8251C142.607 38.2608 142.102 39.7185 139.93 39.4066Z" fill="#808080" fill-opacity="0.6"/>
<path id="Ellipse 167" d="M141.895 37.0062C141.713 36.7899 141.442 36.6053 141.111 36.4729C140.78 36.3405 140.403 36.2655 140.021 36.2562C139.638 36.247 139.267 36.3039 138.947 36.4206C138.627 36.5373 138.372 36.7092 138.21 36.9172L138.972 36.5639C139.087 36.5705 139.303 36.4832 139.477 36.451C139.772 36.3961 139.809 36.405 140.014 36.41C140.22 36.4149 140.359 36.4297 140.63 36.4453C140.902 36.4609 140.924 36.534 141.105 36.6274L141.895 37.0062Z" fill="black"/>
<ellipse id="Ellipse 169" cx="149.83" cy="34.7949" rx="0.732451" ry="1.68121" transform="rotate(1.591 149.83 34.7949)" fill="#D3FDD7"/>
</g>
<g id="Group 51">
<ellipse id="Ellipse 185" rx="0.827406" ry="2.44951" transform="matrix(0.910218 -0.41413 0.193394 0.981121 128.491 60.0694)" fill="#D3FDD7"/>
<ellipse id="Ellipse 186" rx="0.827406" ry="2.44951" transform="matrix(0.910218 -0.41413 0.193394 0.981121 127.567 60.7674)" fill="#D3FDD7"/>
<ellipse id="Ellipse 187" rx="0.847286" ry="1.74463" transform="matrix(0.868349 -0.495953 0.244104 0.969749 129.506 59.2724)" fill="#D3FDD7"/>
<rect id="Rectangle 40" width="4.1422" height="0.597787" transform="matrix(0.817343 -0.576152 0.3003 0.953845 126.803 61.2332)" fill="#808080" fill-opacity="0.4"/>
<rect id="Rectangle 39" width="5.69688" height="2.91971" transform="matrix(0.784821 -0.619722 0.334494 0.942398 125.267 59.4111)" fill="#C1AB9C"/>
</g>
<g id="Group 52">
<ellipse id="Ellipse 185_2" rx="0.827406" ry="2.44951" transform="matrix(-0.885827 -0.464016 -0.247556 0.968874 148.633 60.1783)" fill="#D3FDD7"/>
<ellipse id="Ellipse 186_2" rx="0.827406" ry="2.44951" transform="matrix(-0.885827 -0.464016 -0.247556 0.968874 149.517 60.9268)" fill="#D3FDD7"/>
<ellipse id="Ellipse 187_2" rx="0.847286" ry="1.74463" transform="matrix(-0.839481 -0.543389 -0.297557 0.954704 147.664 59.3261)" fill="#D3FDD7"/>
<rect id="Rectangle 40_2" width="3.99599" height="0.597787" transform="matrix(-0.784102 -0.620632 -0.352783 0.935705 150.162 61.1387)" fill="#808080" fill-opacity="0.4"/>
<rect id="Rectangle 39_2" width="5.69688" height="2.91971" transform="matrix(-0.749212 -0.662331 -0.386289 0.922378 151.891 59.7002)" fill="#C1AB9C"/>
</g>
<g id="Group 50">
<ellipse id="Ellipse 181" rx="9.43803" ry="5.49522" transform="matrix(-0.114453 0.993429 -0.99801 -0.0630502 128.414 51.1384)" fill="#C1AB9C"/>
<path id="Ellipse 182" d="M126.622 60.0315C123.593 59.8402 122.455 55.0907 123.051 49.9124C123.648 44.7342 126.587 40.6916 129.616 40.8829C132.645 41.0743 127.311 44.504 126.714 49.6822C126.118 54.8604 129.651 60.2229 126.622 60.0315Z" fill="#808080" fill-opacity="0.55"/>
</g>
<g id="Group 45">
<ellipse id="Ellipse 183" rx="9.82971" ry="4.27964" transform="matrix(0.037162 0.999309 0.999809 -0.0195569 150.357 51.8733)" fill="#C1AB9C"/>
<path id="Ellipse 184" d="M137.282 58.2323C137.97 61.5319 141.338 62.5696 144.806 60.5502C148.274 58.5308 150.528 54.2189 149.84 50.9194C149.153 47.6198 147.761 54.4193 144.294 56.4387C140.826 58.4581 136.595 54.9327 137.282 58.2323Z" fill="#808080" fill-opacity="0.5"/>
</g>
<g id="Group 49">
<ellipse id="Ellipse 176" rx="11.5384" ry="5.26468" transform="matrix(-0.921895 0.387439 0.297044 0.954864 141.057 54.8478)" fill="#C1AB9C"/>
</g>
<g id="Group 48">
<ellipse id="Ellipse 176_2" rx="7.1774" ry="3.89226" transform="matrix(-0.879046 0.476736 0.231679 0.972792 144.159 44.4122)" fill="#C1AB9C"/>
<path id="Ellipse 180" d="M137.849 47.8341C138.347 49.9252 141.575 50.0885 145.06 48.1987C148.544 46.3089 150.965 43.0818 150.467 40.9906C147.331 37.6753 146.131 44.0609 142.646 45.9507C140.854 45.0299 137.351 45.7429 137.849 47.8341Z" fill="#808080" fill-opacity="0.4"/>
</g>
<g id="Group 47">
<ellipse id="Ellipse 183_2" rx="10.6523" ry="4.76745" transform="matrix(0.964511 0.264044 -0.188534 0.982067 136.232 50.1343)" fill="#C1AB9C"/>
<path id="Ellipse 184_2" d="M146.507 52.9472C146.01 55.533 141.008 56.3699 135.334 54.8165C129.659 53.2631 125.462 49.9076 125.958 47.3218C126.455 44.7361 129.749 50.0436 135.423 51.597C141.097 53.1504 147.003 50.3614 146.507 52.9472Z" fill="#808080" fill-opacity="0.4"/>
</g>
<g id="Group 46">
<ellipse id="Ellipse 174" rx="7.03469" ry="3.72496" transform="matrix(0.951302 0.30826 -0.162024 0.986787 132.961 43.4915)" fill="#C1AB9C"/>
<path id="Ellipse 179" d="M139.653 45.66C139.32 47.6901 136.054 48.3649 132.358 47.1672C128.662 45.9696 125.936 43.353 126.269 41.323C126.603 39.2929 128.732 43.4439 132.428 44.6416C136.124 45.8392 139.987 43.6299 139.653 45.66Z" fill="#808080" fill-opacity="0.4"/>
</g>
</g>
</g>
</g>
<path id="Ellipse 53" d="M1174.94 909.226C1174.94 862.342 1131.35 817.379 1053.74 784.227C976.14 751.076 870.889 732.451 761.142 732.451C651.395 732.451 546.144 751.076 468.541 784.227C390.938 817.379 347.342 862.342 347.342 909.226L761.142 909.226H1174.94Z" fill="url(#paint10_linear)"/>
<path id="Ellipse 58" d="M1174.94 909.168C1174.94 860.493 1131.35 813.812 1053.74 779.393C976.14 744.975 870.889 821.466 761.142 821.466C651.395 821.466 537.633 767.93 460.03 802.349C382.428 836.767 347.342 860.493 347.342 909.168L761.142 909.168H1174.94Z" fill="#15132D" fill-opacity="0.17"/>
</g>
<defs>
<linearGradient id="paint0_linear" x1="-9.99101e-06" y1="11" x2="1440" y2="855" gradientUnits="userSpaceOnUse">
<stop offset="0.061877" stop-color="#0F0E13"/>
<stop offset="0.620832" stop-color="#15132D"/>
</linearGradient>
<linearGradient id="paint1_linear" x1="1208.63" y1="723" x2="1209" y2="847.049" gradientUnits="userSpaceOnUse">
<stop stop-color="#344A49"/>
<stop offset="1"/>
</linearGradient>
<linearGradient id="paint2_linear" x1="264.627" y1="737" x2="276.254" y2="869.007" gradientUnits="userSpaceOnUse">
<stop stop-color="#2E4140"/>
<stop offset="1"/>
</linearGradient>
<linearGradient id="paint3_linear" x1="761.066" y1="728.647" x2="761" y2="854.5" gradientUnits="userSpaceOnUse">
<stop stop-color="#344A49"/>
<stop offset="1" stop-color="#15132D"/>
</linearGradient>
<linearGradient id="paint4_linear" x1="1108" y1="174.5" x2="1150.66" y2="253.115" gradientUnits="userSpaceOnUse">
<stop stop-color="#FCFDD3"/>
<stop offset="1" stop-color="#ECECEC"/>
</linearGradient>
<linearGradient id="paint5_linear" x1="166.955" y1="35.0448" x2="102.98" y2="491.132" gradientUnits="userSpaceOnUse">
<stop offset="0.104167" stop-color="#FCFDD3"/>
<stop offset="1" stop-color="#FCFDD3" stop-opacity="0"/>
</linearGradient>
<linearGradient id="paint6_linear" x1="123.013" y1="25.4885" x2="118.957" y2="32.212" gradientUnits="userSpaceOnUse">
<stop stop-color="#FDE7D3"/>
<stop offset="1" stop-color="#FDE7D3" stop-opacity="0"/>
</linearGradient>
<linearGradient id="paint7_linear" x1="123.702" y1="24.7717" x2="119.646" y2="31.4952" gradientUnits="userSpaceOnUse">
<stop stop-color="#808080"/>
<stop offset="1" stop-color="#FDE7D3" stop-opacity="0"/>
</linearGradient>
<linearGradient id="paint8_linear" x1="156.169" y1="26.5067" x2="159.845" y2="33.4449" gradientUnits="userSpaceOnUse">
<stop stop-color="#FDE7D3"/>
<stop offset="1" stop-color="#FDE7D3" stop-opacity="0"/>
</linearGradient>
<linearGradient id="paint9_linear" x1="155.521" y1="25.7525" x2="159.198" y2="32.6908" gradientUnits="userSpaceOnUse">
<stop stop-color="#808080"/>
<stop offset="1" stop-color="#FDE7D3" stop-opacity="0"/>
</linearGradient>
<linearGradient id="paint10_linear" x1="761.142" y1="732.451" x2="761" y2="847.5" gradientUnits="userSpaceOnUse">
<stop stop-color="#3D5655"/>
<stop offset="1" stop-color="#0F0E13"/>
</linearGradient>
<clipPath id="clip0">
<rect width="1440" height="855" fill="white"/>
</clipPath>
</defs>
</svg>
