<svg width="166" height="102" viewBox="0 0 166 102" fill="none" xmlns="http://www.w3.org/2000/svg">
<g id="spaceship">
<circle id="Ellipse 10" cx="129.911" cy="46.8009" r="3" transform="rotate(10.3519 129.911 46.8009)" fill="#FCFDD3"/>
<circle id="Ellipse 12" cx="39.4082" cy="30.2691" r="3" transform="rotate(10.3519 39.4082 30.2691)" fill="#FCFDD3"/>
<ellipse id="Ellipse 1" cx="82.366" cy="53.8725" rx="77.5" ry="20.5" transform="rotate(10.3519 82.366 53.8725)" fill="#B5BCCA"/>
<circle id="Ellipse 3" cx="33.8561" cy="38.4038" r="4" transform="rotate(10.3519 33.8561 38.4038)" fill="#FCFDD3"/>
<circle id="Ellipse 4" cx="46.1906" cy="48.7893" r="4" transform="rotate(10.3519 46.1906 48.7893)" fill="#FCFDD3"/>
<circle id="Ellipse 7" cx="60.2277" cy="55.4195" r="4" transform="rotate(10.3519 60.2277 55.4195)" fill="#FCFDD3"/>
<circle id="Ellipse 5" cx="78.6536" cy="60.6537" r="4" transform="rotate(10.3519 78.6536 60.6537)" fill="#FCFDD3"/>
<circle id="Ellipse 6" cx="95.6536" cy="63.6537" r="4" transform="rotate(10.3519 95.6536 63.6537)" fill="#FCFDD3"/>
<circle id="Ellipse 11" cx="112.724" cy="62.9759" r="4" transform="rotate(10.3519 112.724 62.9759)" fill="#FCFDD3"/>
<circle id="Ellipse 8" cx="128.199" cy="61.7364" r="4" transform="rotate(10.3519 128.199 61.7364)" fill="#FCFDD3"/>
<circle id="Ellipse 9" cx="137.506" cy="55.3042" r="4" transform="rotate(10.3519 137.506 55.3042)" fill="#FCFDD3"/>
<path id="Ellipse 2" d="M107.322 53.0103C100.547 54.8523 91.8242 55.02 83.0004 53.478C74.1765 51.936 65.9432 48.8052 60.0418 44.7478C54.1404 40.6904 51.0338 36.0246 51.3791 31.7374C51.7244 27.4501 55.4946 23.8776 61.8921 21.7754C68.2895 19.6733 76.8127 19.2064 85.6587 20.4735C94.5046 21.7406 102.98 24.6424 109.291 28.565C115.603 32.4876 119.256 37.1234 119.478 41.4919C119.7 45.8605 116.473 49.619 110.48 51.9727L85.4209 37.1493L107.322 53.0103Z" fill="#B5BCCA" fill-opacity="0.5"/>
<path id="Ellipse 13" d="M93.6533 25.1561C96.7583 26.2014 99.7349 27.8743 102.413 30.0792C105.091 32.2841 107.418 34.9779 109.261 38.0067L107.946 38.8075C106.227 35.984 104.058 33.4729 101.562 31.4175C99.0652 29.3621 96.2905 27.8027 93.396 26.8283L93.6533 25.1561Z" fill="white"/>
<ellipse id="Ellipse 14" cx="85.1886" cy="41.808" rx="28.6659" ry="5.5" transform="rotate(10.8717 85.1886 41.808)" fill="#3F3D56"/>
<g id="Group 19">
<circle id="Ellipse 15" cx="87.0817" cy="31.0665" r="3.99833" transform="rotate(10.8128 87.0817 31.0665)" fill="#4AACA5"/>
<g id="Group 18">
<path id="Rectangle 13" d="M78.8277 35.4597C78.9623 35.3178 78.9564 35.0936 78.8145 34.959V34.959C78.6726 34.8243 78.4484 34.8302 78.3137 34.9722L77.4644 35.8675C77.3297 36.0094 77.3357 36.2336 77.4776 36.3682V36.3682C77.6195 36.5029 77.8437 36.497 77.9783 36.355L78.8277 35.4597Z" fill="#4AACA5"/>
<path id="Rectangle 14" d="M77.8505 33.5237C77.87 33.3684 77.7599 33.2267 77.6046 33.2072V33.2072C77.4493 33.1877 77.3076 33.2978 77.2881 33.4531L76.9801 35.9064C76.9606 36.0617 77.0707 36.2034 77.2259 36.2229V36.2229C77.3812 36.2424 77.5229 36.1323 77.5424 35.977L77.8505 33.5237Z" fill="#4AACA5"/>
<path id="Rectangle 18" d="M77.2942 33.2734C77.3133 33.0996 77.188 32.9432 77.0142 32.9241V32.9241C76.8404 32.9049 76.684 33.0302 76.6649 33.204L76.4161 35.4604C76.397 35.6342 76.5223 35.7906 76.6961 35.8097V35.8097C76.8699 35.8289 77.0263 35.7035 77.0455 35.5298L77.2942 33.2734Z" fill="#4AACA5"/>
<path id="Rectangle 19" d="M75.8022 33.5711C75.7531 33.4034 75.5772 33.3072 75.4094 33.3563V33.3563C75.2417 33.4054 75.1455 33.5813 75.1946 33.7491L75.8325 35.9276C75.8816 36.0954 76.0575 36.1916 76.2253 36.1425V36.1425C76.3931 36.0933 76.4893 35.9175 76.4401 35.7497L75.8022 33.5711Z" fill="#4AACA5"/>
<path id="Rectangle 20" d="M75.4115 34.296C75.3736 34.1667 75.2381 34.0926 75.1088 34.1304V34.1304C74.9794 34.1683 74.9053 34.3038 74.9432 34.4331L75.4609 36.2013C75.4988 36.3306 75.6343 36.4048 75.7636 36.3669V36.3669C75.8929 36.329 75.9671 36.1935 75.9292 36.0642L75.4115 34.296Z" fill="#4AACA5"/>
<path id="Rectangle 13_2" d="M75.2866 36.491C75.1851 35.9386 75.5506 35.4084 76.103 35.3068L76.8017 35.1784C77.3541 35.0769 77.8843 35.4424 77.9859 35.9948V35.9948C78.0874 36.5473 77.7219 37.0775 77.1694 37.179L76.4708 37.3075C75.9183 37.409 75.3882 37.0435 75.2866 36.491V36.491Z" fill="#4AACA5"/>
<path id="Ellipse 16" d="M77.4142 35.4974C77.2567 35.6111 77.1247 35.7601 77.0279 35.9335C76.9312 36.1069 76.8722 36.3002 76.8553 36.4991L76.9518 36.506C76.9675 36.3224 77.0219 36.144 77.1112 35.984C77.2005 35.8239 77.3224 35.6863 77.4678 35.5814L77.4142 35.4974Z" fill="#3F3D56"/>
</g>
<rect id="Rectangle 9" x="85.5291" y="32.8807" width="2.36938" height="3.85024" transform="rotate(10.8128 85.5291 32.8807)" fill="#4AACA5"/>
<rect id="Rectangle 10" x="80.6031" y="34.2014" width="12.5873" height="4.14641" rx="2.07321" transform="rotate(10.8128 80.6031 34.2014)" fill="#AC964A"/>
<rect id="Rectangle 11" x="80.9995" y="34.1263" width="2.74448" height="10.3157" rx="1.37224" transform="rotate(27.0982 80.9995 34.1263)" fill="#AC964A"/>
<rect id="Rectangle 22" x="89.8928" y="36.8717" width="2.74448" height="9.91679" rx="1.37224" transform="rotate(1.67269 89.8928 36.8717)" fill="#AC964A"/>
<path id="Rectangle 12" d="M75.7673 38.3048C75.6478 37.6547 76.078 37.0308 76.728 36.9113V36.9113C77.3781 36.7918 78.002 37.2219 78.1215 37.872L78.9477 42.3668C79.0672 43.0169 78.6371 43.6407 77.9871 43.7602V43.7602C77.337 43.8797 76.7131 43.4496 76.5936 42.7995L75.7673 38.3048Z" fill="#4AACA5"/>
<rect id="Rectangle 21" x="82.1329" y="36.4535" width="8.589" height="8.14474" transform="rotate(10.8128 82.1329 36.4535)" fill="#AC964A"/>
<g id="Polygon 1">
<mask id="path-29-inside-1" fill="white">
<path d="M88.3598 37.7934L88.7259 39.8233L88.1147 39.0766L87.2714 39.5455L88.3598 37.7934Z"/>
</mask>
<path d="M88.3598 37.7934L88.7259 39.8233L88.1147 39.0766L87.2714 39.5455L88.3598 37.7934Z" fill="#E9E5E5"/>
<path d="M88.3598 37.7934L89.3439 37.6159L88.8824 35.0572L87.5104 37.2657L88.3598 37.7934ZM88.7259 39.8233L87.9521 40.4567L90.3945 43.4406L89.71 39.6458L88.7259 39.8233ZM87.2714 39.5455L86.4219 39.0178L84.3871 42.2933L87.7573 40.4195L87.2714 39.5455ZM88.1147 39.0766L88.8885 38.4432L88.3592 37.7965L87.6288 38.2026L88.1147 39.0766ZM87.3757 37.971L87.7418 40.0008L89.71 39.6458L89.3439 37.6159L87.3757 37.971ZM88.1208 40.0732L89.2092 38.3211L87.5104 37.2657L86.4219 39.0178L88.1208 40.0732ZM89.4997 39.1899L88.8885 38.4432L87.3409 39.71L87.9521 40.4567L89.4997 39.1899ZM87.6288 38.2026L86.7854 38.6715L87.7573 40.4195L88.6006 39.9506L87.6288 38.2026Z" fill="#3F3D56" mask="url(#path-29-inside-1)"/>
</g>
</g>
</g>
</svg>
